<?xml version="1.0" encoding="UTF-8"?>
<svg width="326px" height="326px" viewBox="0 0 326 326" version="1.1" xmlns="http://www.w3.org/2000/svg" xmlns:xlink="http://www.w3.org/1999/xlink">
    <!-- Generator: Sketch 46.2 (44496) - http://www.bohemiancoding.com/sketch -->
    <title>HeartLogo</title>
    <desc>Created with Sketch.</desc>
    <defs></defs>
    <g id="Page-1" stroke="none" stroke-width="1" fill="none" fill-rule="evenodd">
        <g id="HeartLogo" transform="translate(-43.000000, -43.000000)" fill-rule="nonzero">
            <g id="heart-(1)" transform="translate(249.000000, 249.000000) rotate(-45.000000) translate(-249.000000, -249.000000) translate(62.000000, 84.000000)">
                <path d="M343.573674,30.9382933 C324.002064,11.3445433 298.09147,0.635408654 270.437657,0.635408654 C242.783843,0.635408654 216.794013,11.4238702 197.222403,31.0176202 L187.000792,41.2507933 L176.620708,30.8589663 C157.049097,11.2652163 130.98003,0.397427885 103.326216,0.397427885 C75.7516398,0.397427885 49.7618093,11.1858894 30.2694364,30.7003125 C10.6978263,50.2940625 -0.0784449153,76.3132933 0.000792372881,103.998389 C0.000792372881,131.683486 10.8563008,157.623389 30.427911,177.217139 L179.235538,326.193101 C181.295708,328.255601 184.069013,329.366178 186.763081,329.366178 C189.457148,329.366178 192.230453,328.334928 194.290623,326.272428 L343.415199,177.534447 C362.986809,157.940697 373.763081,131.921466 373.763081,104.23637 C373.842318,76.551274 363.145284,50.5320433 343.573674,30.9382933 Z" id="Shape" fill="#EF4949"></path>
                <path d="M343.607746,30.9525721 C324.036136,11.3588221 298.125542,0.6496875 270.471729,0.6496875 C242.817915,0.6496875 216.828085,11.438149 197.256475,31.031899 L187.034864,41.2650721 C187.034864,41.2650721 186.307466,329.380457 186.797153,329.380457 C189.49122,329.380457 192.264525,328.349207 194.324695,326.286707 L343.449271,177.548726 C363.020881,157.954976 373.797153,131.935745 373.797153,104.250649 C373.87639,76.5655529 363.179356,50.5463221 343.607746,30.9525721 Z" id="Shape" fill="#DD4646"></path>
            </g>
        </g>
    </g>
</svg>